<svg xmlns="http://www.w3.org/2000/svg" width="250" height="350" viewBox="0 0 250 350"><defs><radialGradient id="pap" cx="0.5" cy="0.45" r="0.75"><stop offset="0" stop-color="#f6e7c4"/><stop offset="0.65" stop-color="#e2c795"/><stop offset="1" stop-color="#b99462"/></radialGradient><pattern id="hatch" width="6" height="6" patternUnits="userSpaceOnUse" patternTransform="rotate(45)"><path d="M0 0v6" stroke="#2b1a0f" stroke-width="1.3" opacity=".35"/></pattern><filter id="grain" x="0" y="0" width="100%" height="100%"><feTurbulence type="fractalNoise" baseFrequency="0.8" numOctaves="2" stitchTiles="stitch"/><feColorMatrix values="0 0 0 0 0  0 0 0 0 0  0 0 0 0 0  1.6 0 0 0 -0.62"/></filter><filter id="b4" x="-50%" y="-50%" width="200%" height="200%"><feGaussianBlur stdDeviation="4"/></filter><linearGradient id="steel" x1="0" y1="0" x2="0" y2="1"><stop offset="0" stop-color="#eef2f6"/><stop offset="0.35" stop-color="#aab2bc"/><stop offset="0.6" stop-color="#5a626c"/><stop offset="1" stop-color="#2e343c"/></linearGradient><linearGradient id="brass" x1="0" y1="0" x2="0" y2="1"><stop offset="0" stop-color="#fff1b8"/><stop offset="0.45" stop-color="#d8a93c"/><stop offset="1" stop-color="#6e4a12"/></linearGradient><linearGradient id="wood" x1="0" y1="0" x2="1" y2="1"><stop offset="0" stop-color="#b0703e"/><stop offset="0.5" stop-color="#7a4424"/><stop offset="1" stop-color="#4a2410"/></linearGradient><linearGradient id="blued" x1="0" y1="0" x2="0" y2="1"><stop offset="0" stop-color="#8a96a8"/><stop offset="0.4" stop-color="#3a4452"/><stop offset="1" stop-color="#141a22"/></linearGradient><radialGradient id="vig" cx="0.5" cy="0.5" r="0.72"><stop offset="0.55" stop-color="#000" stop-opacity="0"/><stop offset="1" stop-color="#3a2410" stop-opacity="0.55"/></radialGradient><linearGradient id="edge" x1="0" y1="0" x2="1" y2="1"><stop offset="0" stop-color="#2e6a96"/><stop offset="1" stop-color="#10304e"/></linearGradient><linearGradient id="ribbon" x1="0" y1="0" x2="0" y2="1"><stop offset="0" stop-color="#2e6a96"/><stop offset="1" stop-color="#10304e"/></linearGradient></defs>
    <rect width="250" height="350" rx="14" fill="url(#edge)"/>
    <rect x="3" y="3" width="244" height="344" rx="12" fill="none" stroke="#9ccaf0" stroke-opacity=".35" stroke-width="1.5"/>
    <rect x="9" y="9" width="232" height="332" rx="9" fill="url(#pap)"/>
    <ellipse cx="20" cy="158.5" rx="19.3" ry="6.8" fill="#7a4a1a" opacity=".07"/><ellipse cx="200.7" cy="146.7" rx="25.5" ry="14.4" fill="#7a4a1a" opacity=".07"/><ellipse cx="119.2" cy="107.3" rx="16.6" ry="18.8" fill="#7a4a1a" opacity=".07"/><ellipse cx="49.5" cy="137.9" rx="27.6" ry="20.9" fill="#7a4a1a" opacity=".07"/><ellipse cx="100.4" cy="46.3" rx="16.5" ry="19.2" fill="#7a4a1a" opacity=".07"/><ellipse cx="144.4" cy="191.9" rx="24.4" ry="10.2" fill="#7a4a1a" opacity=".07"/>
    <rect x="9" y="9" width="232" height="332" rx="9" fill="#000" filter="url(#grain)" opacity=".18"/>
    <rect x="9" y="9" width="232" height="332" rx="9" fill="none" stroke="#2b1a0f" stroke-width="2"/>
    <rect x="15" y="15" width="220" height="320" rx="6" fill="none" stroke="#2e6a96" stroke-width="1.4" stroke-dasharray="6 3"/>
    <path d="M18 16H232L222 33L232 50H18L28 33Z" fill="url(#ribbon)" stroke="#2b1a0f" stroke-width="2"/>
    <path d="M30 20H220M30 46H220" stroke="#9ccaf0" stroke-opacity=".4" stroke-width="1"/>
    <rect x="21" y="53" width="208" height="164" fill="#000" stroke="#2b1a0f" stroke-width="3"/>
    <rect x="21" y="225" width="208" height="100" rx="5" fill="#fff8e4" fill-opacity=".5" stroke="#2e6a96" stroke-width="1.4"/>
    <circle cx="18" cy="18" r="4" fill="url(#brass)" stroke="#2b1a0f" stroke-width="1.2"/><circle cx="232" cy="18" r="4" fill="url(#brass)" stroke="#2b1a0f" stroke-width="1.2"/><circle cx="18" cy="332" r="4" fill="url(#brass)" stroke="#2b1a0f" stroke-width="1.2"/><circle cx="232" cy="332" r="4" fill="url(#brass)" stroke="#2b1a0f" stroke-width="1.2"/></svg>
