<svg xmlns="http://www.w3.org/2000/svg" width="240" height="190" viewBox="0 0 240 190"><defs><radialGradient id="pap" cx="0.5" cy="0.45" r="0.75"><stop offset="0" stop-color="#f6e7c4"/><stop offset="0.65" stop-color="#e2c795"/><stop offset="1" stop-color="#b99462"/></radialGradient><pattern id="hatch" width="6" height="6" patternUnits="userSpaceOnUse" patternTransform="rotate(45)"><path d="M0 0v6" stroke="#2b1a0f" stroke-width="1.3" opacity=".35"/></pattern><filter id="grain" x="0" y="0" width="100%" height="100%"><feTurbulence type="fractalNoise" baseFrequency="0.8" numOctaves="2" stitchTiles="stitch"/><feColorMatrix values="0 0 0 0 0  0 0 0 0 0  0 0 0 0 0  1.6 0 0 0 -0.62"/></filter><filter id="b4" x="-50%" y="-50%" width="200%" height="200%"><feGaussianBlur stdDeviation="4"/></filter><linearGradient id="steel" x1="0" y1="0" x2="0" y2="1"><stop offset="0" stop-color="#eef2f6"/><stop offset="0.35" stop-color="#aab2bc"/><stop offset="0.6" stop-color="#5a626c"/><stop offset="1" stop-color="#2e343c"/></linearGradient><linearGradient id="brass" x1="0" y1="0" x2="0" y2="1"><stop offset="0" stop-color="#fff1b8"/><stop offset="0.45" stop-color="#d8a93c"/><stop offset="1" stop-color="#6e4a12"/></linearGradient><linearGradient id="wood" x1="0" y1="0" x2="1" y2="1"><stop offset="0" stop-color="#b0703e"/><stop offset="0.5" stop-color="#7a4424"/><stop offset="1" stop-color="#4a2410"/></linearGradient><linearGradient id="blued" x1="0" y1="0" x2="0" y2="1"><stop offset="0" stop-color="#8a96a8"/><stop offset="0.4" stop-color="#3a4452"/><stop offset="1" stop-color="#141a22"/></linearGradient><radialGradient id="vig" cx="0.5" cy="0.5" r="0.72"><stop offset="0.55" stop-color="#000" stop-opacity="0"/><stop offset="1" stop-color="#3a2410" stop-opacity="0.55"/></radialGradient></defs><rect width="240" height="190" fill="url(#pap)"/>
    <rect x="46" y="10" width="148" height="172" fill="#f0dcae" stroke="#2b1a0f" stroke-width="3" transform="rotate(-3 120 96)"/>
    <text x="120" y="42" text-anchor="middle" font-family="Georgia, 'Times New Roman', serif" font-size="28" font-weight="700" letter-spacing="3" fill="#2b1a0f" transform="rotate(-3 120 96)">WANTED</text>
    <g transform="rotate(-3 120 96)">
      <ellipse cx="120" cy="100" rx="28" ry="32" fill="#c89a6a" stroke="#2b1a0f" stroke-width="3"/>
      <path d="M80 82C80 62 160 62 160 82L172 86C164 92 76 92 68 86Z" fill="#2b1a0f"/>
      <path d="M92 104C104 116 136 116 148 104L146 132L120 146L94 132Z" fill="#9e2a22" stroke="#2b1a0f" stroke-width="3"/>
      <circle cx="108" cy="96" r="3" fill="#2b1a0f"/><circle cx="132" cy="96" r="3" fill="#2b1a0f"/>
      <text x="120" y="172" text-anchor="middle" font-family="Georgia, 'Times New Roman', serif" font-size="16" font-weight="700" fill="#9e2a22">$ 5,000</text>
    </g>
    <circle cx="186" cy="20" r="5" fill="#6a6a70" stroke="#2b1a0f" stroke-width="2"/><rect width="240" height="190" fill="url(#vig)"/><rect width="240" height="190" filter="url(#grain)" opacity=".18"/></svg>
