<svg xmlns="http://www.w3.org/2000/svg" width="240" height="190" viewBox="0 0 240 190"><defs><radialGradient id="pap" cx="0.5" cy="0.45" r="0.75"><stop offset="0" stop-color="#f6e7c4"/><stop offset="0.65" stop-color="#e2c795"/><stop offset="1" stop-color="#b99462"/></radialGradient><pattern id="hatch" width="6" height="6" patternUnits="userSpaceOnUse" patternTransform="rotate(45)"><path d="M0 0v6" stroke="#2b1a0f" stroke-width="1.3" opacity=".35"/></pattern><filter id="grain" x="0" y="0" width="100%" height="100%"><feTurbulence type="fractalNoise" baseFrequency="0.8" numOctaves="2" stitchTiles="stitch"/><feColorMatrix values="0 0 0 0 0  0 0 0 0 0  0 0 0 0 0  1.6 0 0 0 -0.62"/></filter><filter id="b4" x="-50%" y="-50%" width="200%" height="200%"><feGaussianBlur stdDeviation="4"/></filter><linearGradient id="steel" x1="0" y1="0" x2="0" y2="1"><stop offset="0" stop-color="#eef2f6"/><stop offset="0.35" stop-color="#aab2bc"/><stop offset="0.6" stop-color="#5a626c"/><stop offset="1" stop-color="#2e343c"/></linearGradient><linearGradient id="brass" x1="0" y1="0" x2="0" y2="1"><stop offset="0" stop-color="#fff1b8"/><stop offset="0.45" stop-color="#d8a93c"/><stop offset="1" stop-color="#6e4a12"/></linearGradient><linearGradient id="wood" x1="0" y1="0" x2="1" y2="1"><stop offset="0" stop-color="#b0703e"/><stop offset="0.5" stop-color="#7a4424"/><stop offset="1" stop-color="#4a2410"/></linearGradient><linearGradient id="blued" x1="0" y1="0" x2="0" y2="1"><stop offset="0" stop-color="#8a96a8"/><stop offset="0.4" stop-color="#3a4452"/><stop offset="1" stop-color="#141a22"/></linearGradient><radialGradient id="vig" cx="0.5" cy="0.5" r="0.72"><stop offset="0.55" stop-color="#000" stop-opacity="0"/><stop offset="1" stop-color="#3a2410" stop-opacity="0.55"/></radialGradient></defs><rect width="240" height="190" fill="url(#pap)"/>
    <rect x="18" y="14" width="204" height="166" fill="#2a1e18" stroke="#2b1a0f" stroke-width="5"/>
    <rect x="28" y="24" width="184" height="146" fill="#1a2440"/>
    <circle cx="160" cy="62" r="18" fill="#f4ecd0"/><circle cx="160" cy="62" r="34" fill="#f4ecd0" opacity=".15"/>
    <rect x="42" y="20" width="12" height="154" fill="url(#steel)" stroke="#2b1a0f" stroke-width="2.5"/><rect x="78" y="20" width="12" height="154" fill="url(#steel)" stroke="#2b1a0f" stroke-width="2.5"/><rect x="114" y="20" width="12" height="154" fill="url(#steel)" stroke="#2b1a0f" stroke-width="2.5"/><rect x="150" y="20" width="12" height="154" fill="url(#steel)" stroke="#2b1a0f" stroke-width="2.5"/><rect x="186" y="20" width="12" height="154" fill="url(#steel)" stroke="#2b1a0f" stroke-width="2.5"/>
    <rect x="24" y="56" width="192" height="10" fill="url(#steel)" stroke="#2b1a0f" stroke-width="2.5"/>
    <rect x="24" y="136" width="192" height="10" fill="url(#steel)" stroke="#2b1a0f" stroke-width="2.5"/>
    <path d="M110 132V118a14 14 0 0 1 28 0V132" stroke="#2b1a0f" stroke-width="6" fill="none"/>
    <path d="M110 132V118a14 14 0 0 1 28 0V132" stroke="#9aa2ac" stroke-width="3" fill="none"/>
    <rect x="102" y="130" width="44" height="36" rx="5" fill="url(#brass)" stroke="#2b1a0f" stroke-width="3"/>
    <circle cx="124" cy="144" r="5" fill="#2b1a0f"/><path d="M122 146h4v10h-4z" fill="#2b1a0f"/><rect width="240" height="190" fill="url(#vig)"/><rect width="240" height="190" filter="url(#grain)" opacity=".18"/></svg>
