<svg xmlns="http://www.w3.org/2000/svg" width="240" height="300" viewBox="0 0 240 300"><defs><radialGradient id="pap" cx="0.5" cy="0.45" r="0.75"><stop offset="0" stop-color="#f6e7c4"/><stop offset="0.65" stop-color="#e2c795"/><stop offset="1" stop-color="#b99462"/></radialGradient><pattern id="hatch" width="6" height="6" patternUnits="userSpaceOnUse" patternTransform="rotate(45)"><path d="M0 0v6" stroke="#2b1a0f" stroke-width="1.3" opacity=".35"/></pattern><filter id="grain" x="0" y="0" width="100%" height="100%"><feTurbulence type="fractalNoise" baseFrequency="0.8" numOctaves="2" stitchTiles="stitch"/><feColorMatrix values="0 0 0 0 0  0 0 0 0 0  0 0 0 0 0  1.6 0 0 0 -0.62"/></filter><filter id="b4" x="-50%" y="-50%" width="200%" height="200%"><feGaussianBlur stdDeviation="4"/></filter><linearGradient id="steel" x1="0" y1="0" x2="0" y2="1"><stop offset="0" stop-color="#eef2f6"/><stop offset="0.35" stop-color="#aab2bc"/><stop offset="0.6" stop-color="#5a626c"/><stop offset="1" stop-color="#2e343c"/></linearGradient><linearGradient id="brass" x1="0" y1="0" x2="0" y2="1"><stop offset="0" stop-color="#fff1b8"/><stop offset="0.45" stop-color="#d8a93c"/><stop offset="1" stop-color="#6e4a12"/></linearGradient><linearGradient id="wood" x1="0" y1="0" x2="1" y2="1"><stop offset="0" stop-color="#b0703e"/><stop offset="0.5" stop-color="#7a4424"/><stop offset="1" stop-color="#4a2410"/></linearGradient><linearGradient id="blued" x1="0" y1="0" x2="0" y2="1"><stop offset="0" stop-color="#8a96a8"/><stop offset="0.4" stop-color="#3a4452"/><stop offset="1" stop-color="#141a22"/></linearGradient><radialGradient id="vig" cx="0.5" cy="0.5" r="0.72"><stop offset="0.55" stop-color="#000" stop-opacity="0"/><stop offset="1" stop-color="#3a2410" stop-opacity="0.55"/></radialGradient><radialGradient id="sky" cx="0.5" cy="0.4" r="0.85"><stop offset="0" stop-color="#ffeab4"/><stop offset="0.42" stop-color="#efb864"/><stop offset="1" stop-color="#c0783a"/></radialGradient><linearGradient id="dirt" x1="0" y1="0" x2="0" y2="1"><stop offset="0" stop-color="#a4652f"/><stop offset="1" stop-color="#6b3c18"/></linearGradient><radialGradient id="vig2" cx="0.5" cy="0.48" r="0.74"><stop offset="0.5" stop-color="#000" stop-opacity="0"/><stop offset="1" stop-color="#2a1708" stop-opacity="0.6"/></radialGradient><filter id="mono"><feColorMatrix type="saturate" values="0.06"/><feComponentTransfer><feFuncR type="linear" slope="1.05" intercept="0.02"/><feFuncG type="linear" slope="1.02"/><feFuncB type="linear" slope="0.98"/></feComponentTransfer></filter></defs>
    <g filter="url(#mono)">
    <rect width="240" height="300" fill="url(#sky)"/>
    <path d="M120 120L380 120L379.4 137ZM120 120L371.1 187.3L366.2 203.6ZM120 120L345.2 250L336.2 264.4ZM120 120L303.8 303.8L291.4 315.5ZM120 120L250 345.2L235 353.2ZM120 120L187.3 371.1L170.7 375ZM120 120L120 380L103 379.4ZM120 120L52.7 371.1L36.4 366.2ZM120 120L-10 345.2L-24.4 336.2ZM120 120L-63.8 303.8L-75.5 291.4ZM120 120L-105.2 250L-113.2 235ZM120 120L-131.1 187.3L-135 170.7ZM120 120L-140 120L-139.4 103ZM120 120L-131.1 52.7L-126.2 36.4ZM120 120L-105.2 -10L-96.2 -24.4ZM120 120L-63.8 -63.8L-51.4 -75.5ZM120 120L-10 -105.2L5 -113.2ZM120 120L52.7 -131.1L69.3 -135ZM120 120L120 -140L137 -139.4ZM120 120L187.3 -131.1L203.6 -126.2ZM120 120L250 -105.2L264.4 -96.2ZM120 120L303.8 -63.8L315.5 -51.4ZM120 120L345.2 -10L353.2 5ZM120 120L371.1 52.7L375 69.3Z" fill="#fff3cf" opacity="0.32"/>
    
  <path d="M0 158L28 132L50 146L76 118L102 142L128 122L156 146L184 124L212 144L240 130V300H0Z" fill="#b9793f" opacity=".42"/>
  <path d="M0 186L34 166L62 182L92 160L124 184L154 164L188 184L216 166L240 180V300H0Z" fill="#8d5526" opacity=".5"/>
    <g transform="translate(0 46)"><g transform="translate(20 14)" stroke="#2b1a0f" stroke-width="3" stroke-linejoin="round">
    <rect x="100" y="58" width="76" height="14" rx="2" fill="url(#steel)"/>
    <path d="M169 58v-6h5v6" fill="#2b1a0f"/>
    
    <path d="M44 56L106 54L106 100L86 104L70 104L60 88L44 84Z" fill="url(#steel)"/>
    <rect x="68" y="52" width="40" height="38" rx="9" fill="#5a6472"/>
    <path d="M78 54v34M90 52v38" stroke-width="2.5" opacity=".7"/>
    <path d="M46 56L32 34L44 30L58 54Z" fill="#2a303a"/>
    <path d="M70 104C70 124 94 130 104 112" fill="none" stroke-width="5"/>
    
    <path d="M48 80L76 96C74 120 78 140 88 160L46 168C30 140 30 104 48 80Z" fill="url(#wood)"/>
    <path d="M48 80L76 96C74 120 78 140 88 160L46 168C30 140 30 104 48 80Z" fill="url(#hatch)" stroke="none"/>
    <path d="M104 62H168" stroke="#fff" stroke-width="2" opacity=".55"/>
  </g></g>
    
  <path d="M0 262Q60 250 124 258T240 252V300H0Z" fill="url(#dirt)"/>
  <path d="M0 276Q70 268 132 274T240 270V300H0Z" fill="#5a3014" opacity=".75"/>
  <g fill="#3a1d0a" opacity=".7">
    <ellipse cx="26" cy="284" rx="15" ry="5"/><ellipse cx="206" cy="290" rx="19" ry="6"/>
    <path d="M214 272c0-8 3-13 6-13s6 5 6 13v14h-12z"/>
    <path d="M214 276c-5 0-8-4-8-9s2-6 4-6 4 3 4 8zM226 274c5 0 9-4 9-10s-2-7-4-7-4 4-4 9z"/>
  </g></g>
    <rect width="240" height="300" fill="url(#vig2)"/>
    <rect width="240" height="300" filter="url(#grain)" opacity=".2"/></svg>
