<svg xmlns="http://www.w3.org/2000/svg" width="240" height="190" viewBox="0 0 240 190"><defs><radialGradient id="pap" cx="0.5" cy="0.45" r="0.75"><stop offset="0" stop-color="#f6e7c4"/><stop offset="0.65" stop-color="#e2c795"/><stop offset="1" stop-color="#b99462"/></radialGradient><pattern id="hatch" width="6" height="6" patternUnits="userSpaceOnUse" patternTransform="rotate(45)"><path d="M0 0v6" stroke="#2b1a0f" stroke-width="1.3" opacity=".35"/></pattern><filter id="grain" x="0" y="0" width="100%" height="100%"><feTurbulence type="fractalNoise" baseFrequency="0.8" numOctaves="2" stitchTiles="stitch"/><feColorMatrix values="0 0 0 0 0  0 0 0 0 0  0 0 0 0 0  1.6 0 0 0 -0.62"/></filter><filter id="b4" x="-50%" y="-50%" width="200%" height="200%"><feGaussianBlur stdDeviation="4"/></filter><linearGradient id="steel" x1="0" y1="0" x2="0" y2="1"><stop offset="0" stop-color="#eef2f6"/><stop offset="0.35" stop-color="#aab2bc"/><stop offset="0.6" stop-color="#5a626c"/><stop offset="1" stop-color="#2e343c"/></linearGradient><linearGradient id="brass" x1="0" y1="0" x2="0" y2="1"><stop offset="0" stop-color="#fff1b8"/><stop offset="0.45" stop-color="#d8a93c"/><stop offset="1" stop-color="#6e4a12"/></linearGradient><linearGradient id="wood" x1="0" y1="0" x2="1" y2="1"><stop offset="0" stop-color="#b0703e"/><stop offset="0.5" stop-color="#7a4424"/><stop offset="1" stop-color="#4a2410"/></linearGradient><linearGradient id="blued" x1="0" y1="0" x2="0" y2="1"><stop offset="0" stop-color="#8a96a8"/><stop offset="0.4" stop-color="#3a4452"/><stop offset="1" stop-color="#141a22"/></linearGradient><radialGradient id="vig" cx="0.5" cy="0.5" r="0.72"><stop offset="0.55" stop-color="#000" stop-opacity="0"/><stop offset="1" stop-color="#3a2410" stop-opacity="0.55"/></radialGradient></defs><rect width="240" height="190" fill="url(#pap)"/><path d="M120 100L380 100L379.4 117ZM120 100L371.1 167.3L366.2 183.6ZM120 100L345.2 230L336.2 244.4ZM120 100L303.8 283.8L291.4 295.5ZM120 100L250 325.2L235 333.2ZM120 100L187.3 351.1L170.7 355ZM120 100L120 360L103 359.4ZM120 100L52.7 351.1L36.4 346.2ZM120 100L-10 325.2L-24.4 316.2ZM120 100L-63.8 283.8L-75.5 271.4ZM120 100L-105.2 230L-113.2 215ZM120 100L-131.1 167.3L-135 150.7ZM120 100L-140 100L-139.4 83ZM120 100L-131.1 32.7L-126.2 16.4ZM120 100L-105.2 -30L-96.2 -44.4ZM120 100L-63.8 -83.8L-51.4 -95.5ZM120 100L-10 -125.2L5 -133.2ZM120 100L52.7 -151.1L69.3 -155ZM120 100L120 -160L137 -159.4ZM120 100L187.3 -151.1L203.6 -146.2ZM120 100L250 -125.2L264.4 -116.2ZM120 100L303.8 -83.8L315.5 -71.4ZM120 100L345.2 -30L353.2 -15ZM120 100L371.1 32.7L375 49.3Z" fill="#fff3cf" opacity="0.45"/>
    <circle cx="128" cy="78" r="70" fill="#ffe7a0" opacity=".6"/>
    <g stroke="#2b1a0f" stroke-width="3.2" stroke-linejoin="round">
      <path d="M58 88L96 40H212L172 88Z" fill="#6a4226"/>
      <path d="M50 94H176V170H50Z" fill="#7a4a2a"/>
      <path d="M176 94L208 62V138L176 170Z" fill="#5a3418"/>
      <path d="M50 94L82 62H208L176 94Z" fill="#2a1408"/>
      <path d="M92 72h26l-4 10h-18z" fill="url(#brass)" stroke-width="2"/><path d="M124 70h26l-4 10h-18z" fill="url(#brass)" stroke-width="2"/><path d="M156 72h26l-4 10h-18z" fill="url(#brass)" stroke-width="2"/><path d="M108 82h26l-4 10h-18z" fill="url(#brass)" stroke-width="2"/><path d="M140 82h26l-4 10h-18z" fill="url(#brass)" stroke-width="2"/>
      <rect x="72" y="94" width="10" height="76" fill="url(#steel)"/><rect x="146" y="94" width="10" height="76" fill="url(#steel)"/>
      <rect x="102" y="118" width="24" height="28" rx="3" fill="url(#brass)"/><circle cx="114" cy="130" r="3" fill="#2b1a0f"/>
    </g>
    <ellipse cx="42" cy="176" rx="12" ry="5" fill="url(#brass)" stroke="#2b1a0f" stroke-width="2"/><ellipse cx="196" cy="176" rx="12" ry="5" fill="url(#brass)" stroke="#2b1a0f" stroke-width="2"/><ellipse cx="212" cy="168" rx="12" ry="5" fill="url(#brass)" stroke="#2b1a0f" stroke-width="2"/><ellipse cx="30" cy="166" rx="12" ry="5" fill="url(#brass)" stroke="#2b1a0f" stroke-width="2"/>
    <path d="M84 50.4L86 56.5L93.2 54.7L88 60L94.2 65.9L86 63.5L84 70.1L82 63.5L74.3 65.6L80 60L75.7 55.2L82 56.5Z" fill="#fff8d0" stroke="#d8a93c" stroke-width="3" stroke-linejoin="round"/><path d="M170 42L171.5 47.4L177.7 45.6L173 50L178.5 54.9L171.5 52.6L170 58.4L168.5 52.6L161.9 54.7L167 50L163.1 46L168.5 47.4Z" fill="#fff8d0" stroke="#d8a93c" stroke-width="3" stroke-linejoin="round"/><rect width="240" height="190" fill="url(#vig)"/><rect width="240" height="190" filter="url(#grain)" opacity=".18"/></svg>
